<?xml version="1.0" encoding="UTF-8" standalone="no"?><!DOCTYPE svg PUBLIC "-//W3C//DTD SVG 1.1//EN" "http://www.w3.org/Graphics/SVG/1.1/DTD/svg11.dtd"><svg width="100%" height="100%" viewBox="0 0 512 512" version="1.1" xmlns="http://www.w3.org/2000/svg" xmlns:xlink="http://www.w3.org/1999/xlink" xml:space="preserve" xmlns:serif="http://www.serif.com/" style="fill-rule:evenodd;clip-rule:evenodd;stroke-linecap:round;stroke-linejoin:round;stroke-miterlimit:1.5;"><path d="M504.353,132.224l0,247.552c0,68.314 -55.462,123.776 -123.776,123.776l-247.552,0c-68.314,0 -123.776,-55.462 -123.776,-123.776l0,-247.552c0,-68.314 55.462,-123.776 123.776,-123.776l247.552,0c68.314,0 123.776,55.462 123.776,123.776Z" style="fill:#e3d8c3;"/><g><ellipse cx="114.79" cy="195.38" rx="57.929" ry="123.51" style="fill:none;stroke:#fff;stroke-width:25.6px;"/><path d="M114.79,71.87c0,0 223.167,-2.967 254.704,0c42.687,4.017 57.175,91.072 52.412,123.51c-18.009,122.653 8.924,249.029 13.793,246.016l-253.784,0c-31.38,-86.968 -18.792,-166.23 -9.195,-246.016" style="fill:none;stroke:#fff;stroke-width:25.6px;"/><path d="M114.79,318.89l47.138,0" style="fill:none;stroke:#fff;stroke-width:25.6px;"/><ellipse cx="114.79" cy="195.38" rx="15.632" ry="42.174" style="fill:#fff;"/></g></svg>