<?xml version="1.0" encoding="UTF-8" standalone="no"?><!DOCTYPE svg PUBLIC "-//W3C//DTD SVG 1.1//EN" "http://www.w3.org/Graphics/SVG/1.1/DTD/svg11.dtd"><svg width="100%" height="100%" viewBox="0 0 512 512" version="1.1" xmlns="http://www.w3.org/2000/svg" xmlns:xlink="http://www.w3.org/1999/xlink" xml:space="preserve" xmlns:serif="http://www.serif.com/" style="fill-rule:evenodd;clip-rule:evenodd;stroke-linecap:round;stroke-linejoin:round;stroke-miterlimit:1.5;"><path d="M506.353,131.224l0,249.552c0,68.866 -55.91,124.776 -124.776,124.776l-249.552,0c-68.866,0 -124.776,-55.91 -124.776,-124.776l0,-249.552c0,-68.866 55.91,-124.776 124.776,-124.776l249.552,0c68.866,0 124.776,55.91 124.776,124.776Z" style="fill:#e3d8c3;"/><g><path d="M119.864,455.618l0,-255.371c0,0 -2.622,-145.974 135.747,-145.974c138.369,0 135.556,145.984 135.83,145.974c0.274,-0.01 0,255.371 0,255.371l-271.577,0Z" style="fill:none;stroke:#fff;stroke-width:25.6px;"/><g><path d="M119.861,330.784l271.702,0" style="fill:none;stroke:#fff;stroke-width:17.07px;"/><path d="M119.861,195.884l271.702,0" style="fill:none;stroke:#fff;stroke-width:17.07px;"/><path d="M255.712,54.272l0,401.345" style="fill:none;stroke:#fff;stroke-width:17.07px;"/></g></g></svg>