<?xml version="1.0" encoding="UTF-8" standalone="no"?><!DOCTYPE svg PUBLIC "-//W3C//DTD SVG 1.1//EN" "http://www.w3.org/Graphics/SVG/1.1/DTD/svg11.dtd"><svg width="100%" height="100%" viewBox="0 0 512 512" version="1.1" xmlns="http://www.w3.org/2000/svg" xmlns:xlink="http://www.w3.org/1999/xlink" xml:space="preserve" xmlns:serif="http://www.serif.com/" style="fill-rule:evenodd;clip-rule:evenodd;stroke-linecap:round;stroke-linejoin:round;stroke-miterlimit:1.5;"><path d="M503.353,132.724l0,246.552c0,68.038 -55.238,123.276 -123.276,123.276l-246.552,0c-68.038,0 -123.276,-55.238 -123.276,-123.276l0,-246.552c0,-68.038 55.238,-123.276 123.276,-123.276l246.552,-0c68.038,0 123.276,55.238 123.276,123.276Z" style="fill:#e3d8c3;"/><g><path d="M207.305,143.79c37.098,0 72.979,15.426 102.438,34.646c41.603,27.144 69.989,61.122 69.989,61.122c7.97,9.512 7.97,23.37 -0,32.882c0,0 -28.386,33.978 -69.989,61.122c-29.46,19.221 -65.341,34.646 -102.438,34.646c-37.464,0 -72.305,-15.616 -100.391,-35.027c-39.704,-27.439 -65.448,-61.795 -65.448,-61.795c-6.855,-9.114 -6.855,-21.662 -0,-30.776c0,0 25.745,-34.356 65.448,-61.795c28.086,-19.411 62.928,-35.027 100.391,-35.027Zm0,25.6c-80.238,0 -145.38,86.61 -145.38,86.61c0,0 65.143,86.61 145.38,86.61c80.238,0 152.804,-86.61 152.804,-86.61c0,0 -72.566,-86.61 -152.804,-86.61Z" style="fill:#fff;"/><path d="M360.109,232.288l108.262,-48.05c-24.494,41.734 -22.461,100.52 2.475,144.143l-110.737,-35.881" style="fill:none;stroke:#fff;stroke-width:25.6px;"/><path d="M173.279,169.39c42.113,72.816 10.279,114.906 -23.508,173.219" style="fill:none;stroke:#fff;stroke-width:17.07px;"/><circle cx="131.212" cy="237.441" r="18.559" style="fill:#fff;"/></g></svg>