<?xml version="1.0" encoding="UTF-8" standalone="no"?><!DOCTYPE svg PUBLIC "-//W3C//DTD SVG 1.1//EN" "http://www.w3.org/Graphics/SVG/1.1/DTD/svg11.dtd"><svg width="100%" height="100%" viewBox="0 0 512 512" version="1.1" xmlns="http://www.w3.org/2000/svg" xmlns:xlink="http://www.w3.org/1999/xlink" xml:space="preserve" xmlns:serif="http://www.serif.com/" style="fill-rule:evenodd;clip-rule:evenodd;stroke-linecap:round;stroke-linejoin:round;stroke-miterlimit:1.5;"><path d="M506.353,131.224l0,249.552c0,68.866 -55.91,124.776 -124.776,124.776l-249.552,0c-68.866,0 -124.776,-55.91 -124.776,-124.776l0,-249.552c0,-68.866 55.91,-124.776 124.776,-124.776l249.552,0c68.866,0 124.776,55.91 124.776,124.776Z" style="fill:#e3d8c3;stroke:#fff;stroke-width:12.8px;"/><g><circle cx="255.929" cy="256" r="81.103" style="fill:none;stroke:#fff;stroke-width:25px;"/><path d="M449.225,326.289c-25.809,16.762 -95.276,1.119 -112.193,-33.793l0,-56.772c55.943,-17.132 70.79,-42.354 85.158,-95.972c61.887,59.853 55.483,151.86 27.034,186.537Z" style="fill:#fff;stroke:#fff;stroke-width:8.33px;"/><path d="M337.265,67.729c15.389,26.65 -3.869,95.204 -39.618,110.27l-56.694,-2.971c-14.18,-56.763 -38.591,-72.91 -91.384,-90.064c63.01,-58.669 154.555,-47.459 187.697,-17.235Z" style="fill:#fff;stroke:#fff;stroke-width:8.33px;"/><path d="M68.741,175.747c26.65,-15.389 95.204,3.869 110.27,39.618l-2.971,56.694c-56.763,14.18 -72.91,38.591 -90.064,91.384c-58.669,-63.01 -47.459,-154.555 -17.235,-187.697Z" style="fill:#fff;stroke:#fff;stroke-width:8.33px;"/><path d="M176.759,444.271c-15.389,-26.65 3.869,-95.204 39.618,-110.27l56.694,2.971c14.18,56.763 38.591,72.91 91.384,90.064c-63.01,58.669 -154.555,47.459 -187.697,17.235Z" style="fill:#fff;stroke:#fff;stroke-width:8.33px;"/></g></svg>