<?xml version="1.0" encoding="UTF-8" standalone="no"?><!DOCTYPE svg PUBLIC "-//W3C//DTD SVG 1.1//EN" "http://www.w3.org/Graphics/SVG/1.1/DTD/svg11.dtd"><svg width="100%" height="100%" viewBox="0 0 512 512" version="1.1" xmlns="http://www.w3.org/2000/svg" xmlns:xlink="http://www.w3.org/1999/xlink" xml:space="preserve" xmlns:serif="http://www.serif.com/" style="fill-rule:evenodd;clip-rule:evenodd;stroke-linecap:round;stroke-linejoin:round;stroke-miterlimit:1.5;"><path d="M505.353,131.724l0,248.552c0,68.59 -55.686,124.276 -124.276,124.276l-248.552,0c-68.59,0 -124.276,-55.686 -124.276,-124.276l0,-248.552c0,-68.59 55.686,-124.276 124.276,-124.276l248.552,0c68.59,0 124.276,55.686 124.276,124.276Z" style="fill:#e3d8c3;"/><path d="M159.012,459.66c-37.564,-28.984 -80.257,-57.032 -76.775,-117.725c2.837,-49.466 49.395,-84.961 -7.538,-178.914c68.261,35.369 83.322,65.869 97.012,111.846c8.828,29.646 12.871,80.699 22.278,118.758c5.306,-94.622 38.525,-85.775 33.455,-173.147c-4.252,-73.284 32.092,-168.114 32.087,-168.139c-6.772,101.313 14.448,111.572 55.944,164.355c44.465,56.559 -7.417,94.519 -12.953,182.522c26.443,3.16 54.978,-18.772 60.314,-42.543c14.922,-66.478 35.92,-103.366 70.923,-143.152c-26.657,114.905 -9.878,137.859 -17.141,168.412c-9.706,40.826 -51.122,71.799 -59.097,77.275" style="fill:none;stroke:#fff;stroke-width:27.73px;"/></svg>