<?xml version="1.0" encoding="UTF-8" standalone="no"?><!DOCTYPE svg PUBLIC "-//W3C//DTD SVG 1.1//EN" "http://www.w3.org/Graphics/SVG/1.1/DTD/svg11.dtd"><svg width="100%" height="100%" viewBox="0 0 2134 2134" version="1.1" xmlns="http://www.w3.org/2000/svg" xmlns:xlink="http://www.w3.org/1999/xlink" xml:space="preserve" xmlns:serif="http://www.serif.com/" style="fill-rule:evenodd;clip-rule:evenodd;stroke-miterlimit:10;"><rect id="ページ1" x="0" y="0" width="2133.333" height="2133.333" style="fill:none;"/><clipPath id="_clip1"><rect x="0" y="0" width="2133.333" height="2133.333"/></clipPath><g clip-path="url(#_clip1)"><g id="Sアイコン_07"><path d="M-853.642,1144.543c0,925.179 821.892,1675.188 1835.746,1675.188c1013.854,0 1835.75,-750.008 1835.75,-1675.188c0,-925.179 -821.896,-1675.188 -1835.75,-1675.188c-1013.854,0 -1835.746,750.008 -1835.746,1675.188" style="fill:#ffb139;fill-rule:nonzero;"/><path d="M1717.139,1719.279c0,0 1049.846,181.617 1245.321,427.067" style="fill:none;fill-rule:nonzero;stroke:#b96e17;stroke-width:113.21px;"/><path d="M1717.139,1450.041c0,0 701.425,-61.4 958.121,-28.229c256.642,33.096 568.354,136.8 568.354,136.8" style="fill:none;fill-rule:nonzero;stroke:#b96e17;stroke-width:113.21px;"/><path d="M1717.139,1220.768c0,0 628.167,-134.358 951.963,-120.287c323.983,14.079 700.763,120.287 700.763,120.287" style="fill:none;fill-rule:nonzero;stroke:#b96e17;stroke-width:113.21px;"/><path d="M61.597,1623.795c-481.121,-127.442 -1165.192,-249.283 -1350.758,-144.987" style="fill:none;fill-rule:nonzero;stroke:#b96e17;stroke-width:113.21px;"/><path d="M150.61,1379.24c-498.192,-260.854 -1060.546,-417.262 -1263.458,-353.5" style="fill:none;fill-rule:nonzero;stroke:#b96e17;stroke-width:113.21px;"/><path d="M237.288,1195.605c-452.196,-504.225 -1269.688,-730.438 -1437.808,-649.283" style="fill:none;fill-rule:nonzero;stroke:#b96e17;stroke-width:113.21px;"/><path d="M626.302,1715.055c0,0 155.671,246.183 292.471,255.55c136.842,9.579 358.621,-127.742 358.621,-127.742" style="fill:none;fill-rule:nonzero;stroke:#7c4233;stroke-width:270.9px;"/><path d="M770.492,1394.645c29.458,146.638 132.233,249.563 217.129,273.429c136.721,7.904 227.379,-162.354 249.383,-337.758c-104.558,-56.308 -418.263,-7.929 -466.513,64.329" style="fill:#5b1300;fill-rule:nonzero;"/><path d="M1352.938,1053.687c90.171,-350.213 298.438,-633.838 324.567,-662.638c94.412,-103.775 536.517,-61.875 536.517,-61.875" style="fill:none;fill-rule:nonzero;stroke:#7c4233;stroke-width:270.9px;"/><path d="M-40.267,19.572c0,0 586.346,310.45 666.571,461.408c80.229,151.025 104.579,497.2 104.579,497.2" style="fill:none;fill-rule:nonzero;stroke:#7c4233;stroke-width:270.9px;"/></g></g></svg>