<?xml version="1.0" encoding="UTF-8" standalone="no"?><!DOCTYPE svg PUBLIC "-//W3C//DTD SVG 1.1//EN" "http://www.w3.org/Graphics/SVG/1.1/DTD/svg11.dtd"><svg width="100%" height="100%" viewBox="0 0 2134 2134" version="1.1" xmlns="http://www.w3.org/2000/svg" xmlns:xlink="http://www.w3.org/1999/xlink" xml:space="preserve" xmlns:serif="http://www.serif.com/" style="fill-rule:evenodd;clip-rule:evenodd;stroke-linejoin:round;stroke-miterlimit:2;"><path d="M2118.138,542.6l0,1048.133c0,289.24 -234.826,524.067 -524.067,524.067l-1048.133,0c-289.24,0 -524.067,-234.826 -524.067,-524.067l0,-1048.133c0,-289.24 234.826,-524.067 524.067,-524.067l1048.133,0c289.24,0 524.067,234.826 524.067,524.067Z" style="fill:#e3d8c3;"/><path d="M1211.871,142.071l28.385,196.391c76.415,18.346 149.465,48.604 216.471,89.665l158.941,-118.798c79.472,57.74 149.36,127.628 207.1,207.1l-118.798,158.941c41.061,67.005 71.32,140.056 89.665,216.471l196.391,28.385c15.367,97.023 15.367,195.86 0,292.883l-196.391,28.385c-18.346,76.415 -48.604,149.465 -89.665,216.471l118.798,158.941c-57.74,79.472 -127.628,149.36 -207.1,207.1l-158.941,-118.798c-67.005,41.061 -140.056,71.32 -216.471,89.665l-28.385,196.391c-97.023,15.367 -195.86,15.367 -292.883,0l-28.385,-196.391c-76.415,-18.346 -149.465,-48.604 -216.471,-89.665l-158.941,118.798c-79.472,-57.74 -149.36,-127.628 -207.1,-207.1l118.798,-158.941c-41.061,-67.005 -71.32,-140.056 -89.665,-216.471l-196.391,-28.385c-15.367,-97.023 -15.367,-195.86 0,-292.883l196.391,-28.385c18.346,-76.415 48.604,-149.465 89.665,-216.471l-118.798,-158.941c57.74,-79.472 127.628,-149.36 207.1,-207.1l158.941,118.798c67.005,-41.061 140.056,-71.32 216.471,-89.665l28.385,-196.391c97.023,-15.367 195.86,-15.367 292.883,0Zm-146.442,550.147c206.664,0 374.448,167.785 374.448,374.448c0,206.664 -167.785,374.448 -374.448,374.448c-206.664,0 -374.448,-167.785 -374.448,-374.448c0,-206.664 167.785,-374.448 374.448,-374.448Z" style="fill:#fff;"/></svg>